<mxfile host="app.diagrams.net" modified="2023-07-01T13:12:23.756Z" agent="Mozilla/5.0 (Windows NT 10.0; Win64; x64) AppleWebKit/537.36 (KHTML, like Gecko) Chrome/114.0.0.0 Safari/537.36" etag="VXCETE4-51guJC6IQqFT" version="21.5.2" type="device">
  <diagram name="Trang-1" id="rOuJ-kAji5k0es4fTqa8">
    <mxGraphModel dx="880" dy="484" grid="1" gridSize="10" guides="1" tooltips="1" connect="1" arrows="1" fold="1" page="1" pageScale="1" pageWidth="827" pageHeight="1169" math="0" shadow="0">
      <root>
        <mxCell id="0" />
        <mxCell id="1" parent="0" />
        <mxCell id="OZ6oOR4NYSY9ePTzq_F2-1" value="T = Nhập tài liệu" style="ellipse;whiteSpace=wrap;html=1;" vertex="1" parent="1">
          <mxGeometry x="330" y="40" width="140" height="100" as="geometry" />
        </mxCell>
        <mxCell id="OZ6oOR4NYSY9ePTzq_F2-2" value="T =&amp;nbsp; 1" style="rhombus;whiteSpace=wrap;html=1;" vertex="1" parent="1">
          <mxGeometry x="145" y="290" width="150" height="80" as="geometry" />
        </mxCell>
        <mxCell id="OZ6oOR4NYSY9ePTzq_F2-3" value="1: Luận văn" style="ellipse;whiteSpace=wrap;html=1;" vertex="1" parent="1">
          <mxGeometry x="160" y="160" width="120" height="80" as="geometry" />
        </mxCell>
        <mxCell id="OZ6oOR4NYSY9ePTzq_F2-4" value="2: Giáo trình" style="ellipse;whiteSpace=wrap;html=1;" vertex="1" parent="1">
          <mxGeometry x="500" y="160" width="120" height="80" as="geometry" />
        </mxCell>
        <mxCell id="OZ6oOR4NYSY9ePTzq_F2-5" value="Số trang&amp;nbsp; = 10&lt;br&gt;Số bản = 3" style="rhombus;whiteSpace=wrap;html=1;" vertex="1" parent="1">
          <mxGeometry x="145" y="440" width="150" height="80" as="geometry" />
        </mxCell>
        <mxCell id="OZ6oOR4NYSY9ePTzq_F2-6" value="Số lượng giấy: 30" style="rounded=0;whiteSpace=wrap;html=1;" vertex="1" parent="1">
          <mxGeometry x="140" y="600" width="150" height="60" as="geometry" />
        </mxCell>
        <mxCell id="OZ6oOR4NYSY9ePTzq_F2-9" value="" style="endArrow=classic;html=1;rounded=0;entryX=0.917;entryY=0.125;entryDx=0;entryDy=0;entryPerimeter=0;exitX=0;exitY=1;exitDx=0;exitDy=0;" edge="1" parent="1" source="OZ6oOR4NYSY9ePTzq_F2-1" target="OZ6oOR4NYSY9ePTzq_F2-3">
          <mxGeometry width="50" height="50" relative="1" as="geometry">
            <mxPoint x="390" y="180" as="sourcePoint" />
            <mxPoint x="450" y="330" as="targetPoint" />
          </mxGeometry>
        </mxCell>
        <mxCell id="OZ6oOR4NYSY9ePTzq_F2-10" value="" style="endArrow=classic;html=1;rounded=0;entryX=0.4;entryY=0.038;entryDx=0;entryDy=0;entryPerimeter=0;exitX=0.5;exitY=1;exitDx=0;exitDy=0;" edge="1" parent="1" source="OZ6oOR4NYSY9ePTzq_F2-3" target="OZ6oOR4NYSY9ePTzq_F2-2">
          <mxGeometry width="50" height="50" relative="1" as="geometry">
            <mxPoint x="290" y="250" as="sourcePoint" />
            <mxPoint x="209" y="295" as="targetPoint" />
          </mxGeometry>
        </mxCell>
        <mxCell id="OZ6oOR4NYSY9ePTzq_F2-11" value="" style="endArrow=classic;html=1;rounded=0;entryX=0.917;entryY=0.125;entryDx=0;entryDy=0;entryPerimeter=0;exitX=0;exitY=1;exitDx=0;exitDy=0;" edge="1" parent="1">
          <mxGeometry width="50" height="50" relative="1" as="geometry">
            <mxPoint x="361" y="135" as="sourcePoint" />
            <mxPoint x="280" y="180" as="targetPoint" />
          </mxGeometry>
        </mxCell>
      </root>
    </mxGraphModel>
  </diagram>
</mxfile>
